REM DIRINDEX 1\2\4\8,1\2\4\9,1\2\4\10,1\2\5\11,1\2\5\12,1\2\5\13,1\2\5\14,1\2\5\15,1\3\6\16,1\3\6\17,1\3\6\18,1\3\7\19,1\3\7\20,1\3\7\21,1\3\7\22,1\3\7\23
REM DIRNAME "folder01","folder02","folder03","folder04","folder05","folder06","folder07","folder08","folder09","folder10","folder11","folder12","folder13","folder14","folder15","folder16","folder17","folder18","folder19","folder20","folder21","folder22","folder23"
TITLE ""
FILE "LR_black_phrase_C07.mp3" MP3
  TRACK 01 AUDIO
    TITLE "0:"
    INDEX 01 00:00:00
  TRACK 02 AUDIO
    TITLE "19:cjc171_14601"
    INDEX 01 00:00:14
  TRACK 03 AUDIO
    TITLE "0:"
    INDEX 01 00:01:53
  TRACK 04 AUDIO
    TITLE "20:cjc171_14602"
    INDEX 01 00:02:13
  TRACK 05 AUDIO
    TITLE "0:"
    INDEX 01 00:04:65
  TRACK 06 AUDIO
    TITLE "21:cjc171_14603"
    INDEX 01 00:05:64
  TRACK 07 AUDIO
    TITLE "0:"
    INDEX 01 00:07:69
  TRACK 08 AUDIO
    TITLE "22:cjc171_14604"
    INDEX 01 00:08:33
  TRACK 09 AUDIO
    TITLE "0:"
    INDEX 01 00:10:42
  TRACK 10 AUDIO
    TITLE "23:cjc171_14605"
    INDEX 01 00:10:73
  TRACK 11 AUDIO
    TITLE "0:"
    INDEX 01 00:13:07
  TRACK 12 AUDIO
    TITLE "19:cjc171_14606"
    INDEX 01 00:14:12
  TRACK 13 AUDIO
    TITLE "0:"
    INDEX 01 00:15:29
  TRACK 14 AUDIO
    TITLE "20:cjc171_14607"
    INDEX 01 00:15:71
  TRACK 15 AUDIO
    TITLE "0:"
    INDEX 01 00:18:59
  TRACK 16 AUDIO
    TITLE "21:cjc171_14608"
    INDEX 01 00:19:59
  TRACK 17 AUDIO
    TITLE "0:"
    INDEX 01 00:21:73
  TRACK 18 AUDIO
    TITLE "22:cjc171_14609"
    INDEX 01 00:22:39
  TRACK 19 AUDIO
    TITLE "0:"
    INDEX 01 00:24:30
  TRACK 20 AUDIO
    TITLE "23:cjc171_14610"
    INDEX 01 00:24:60
  TRACK 21 AUDIO
    TITLE "0:"
    INDEX 01 00:26:47
  TRACK 22 AUDIO
    TITLE "19:cjc171_14611"
    INDEX 01 00:27:44
  TRACK 23 AUDIO
    TITLE "0:"
    INDEX 01 00:28:61
  TRACK 24 AUDIO
    TITLE "20:cjc171_14612"
    INDEX 01 00:29:24
  TRACK 25 AUDIO
    TITLE "0:"
    INDEX 01 00:32:14
  TRACK 26 AUDIO
    TITLE "21:cjc171_14613"
    INDEX 01 00:33:12
  TRACK 27 AUDIO
    TITLE "0:"
    INDEX 01 00:37:08
  TRACK 28 AUDIO
    TITLE "22:cjc171_14614"
    INDEX 01 00:37:39
  TRACK 29 AUDIO
    TITLE "0:"
    INDEX 01 00:41:15
  TRACK 30 AUDIO
    TITLE "23:cjc171_14615"
    INDEX 01 00:41:41
  TRACK 31 AUDIO
    TITLE "0:"
    INDEX 01 00:45:13
  TRACK 32 AUDIO
    TITLE "19:cjc171_14616"
    INDEX 01 00:46:08
  TRACK 33 AUDIO
    TITLE "0:"
    INDEX 01 00:47:29
  TRACK 34 AUDIO
    TITLE "20:cjc171_14617"
    INDEX 01 00:47:65
  TRACK 35 AUDIO
    TITLE "0:"
    INDEX 01 00:50:51
  TRACK 36 AUDIO
    TITLE "21:cjc171_14618"
    INDEX 01 00:51:51
  TRACK 37 AUDIO
    TITLE "0:"
    INDEX 01 00:53:32
  TRACK 38 AUDIO
    TITLE "22:cjc171_14619"
    INDEX 01 00:53:65
  TRACK 39 AUDIO
    TITLE "0:"
    INDEX 01 00:55:45
  TRACK 40 AUDIO
    TITLE "23:cjc171_14620"
    INDEX 01 00:55:70
  TRACK 41 AUDIO
    TITLE "0:"
    INDEX 01 00:57:53
  TRACK 42 AUDIO
    TITLE "19:cjc171_14621"
    INDEX 01 00:58:55
  TRACK 43 AUDIO
    TITLE "0:"
    INDEX 01 01:00:03
  TRACK 44 AUDIO
    TITLE "20:cjc171_14622"
    INDEX 01 01:00:42
  TRACK 45 AUDIO
    TITLE "0:"
    INDEX 01 01:01:43
  TRACK 46 AUDIO
    TITLE "21:cjc171_14623"
    INDEX 01 01:02:43
  TRACK 47 AUDIO
    TITLE "0:"
    INDEX 01 01:05:16
  TRACK 48 AUDIO
    TITLE "22:cjc171_14624"
    INDEX 01 01:05:59
  TRACK 49 AUDIO
    TITLE "0:"
    INDEX 01 01:08:63
  TRACK 50 AUDIO
    TITLE "23:cjc171_14625"
    INDEX 01 01:09:15
  TRACK 51 AUDIO
    TITLE "0:"
    INDEX 01 01:12:18
  TRACK 52 AUDIO
    TITLE "19:cjc171_14626"
    INDEX 01 01:13:19
  TRACK 53 AUDIO
    TITLE "0:"
    INDEX 01 01:14:44
  TRACK 54 AUDIO
    TITLE "20:cjc171_14627"
    INDEX 01 01:15:04
  TRACK 55 AUDIO
    TITLE "0:"
    INDEX 01 01:17:33
  TRACK 56 AUDIO
    TITLE "21:cjc171_14628"
    INDEX 01 01:18:32
  TRACK 57 AUDIO
    TITLE "0:"
    INDEX 01 01:20:19
  TRACK 58 AUDIO
    TITLE "22:cjc171_14629"
    INDEX 01 01:20:60
  TRACK 59 AUDIO
    TITLE "0:"
    INDEX 01 01:22:42
  TRACK 60 AUDIO
    TITLE "23:cjc171_14630"
    INDEX 01 01:22:69
  TRACK 61 AUDIO
    TITLE "0:"
    INDEX 01 01:24:52
  TRACK 62 AUDIO
    TITLE "19:cjc171_14631"
    INDEX 01 01:25:50
  TRACK 63 AUDIO
    TITLE "0:"
    INDEX 01 01:26:73
  TRACK 64 AUDIO
    TITLE "20:cjc171_14632"
    INDEX 01 01:27:33
  TRACK 65 AUDIO
    TITLE "0:"
    INDEX 01 01:29:04
  TRACK 66 AUDIO
    TITLE "21:cjc171_14633"
    INDEX 01 01:30:04
  TRACK 67 AUDIO
    TITLE "0:"
    INDEX 01 01:32:52
  TRACK 68 AUDIO
    TITLE "22:cjc171_14634"
    INDEX 01 01:33:20
  TRACK 69 AUDIO
    TITLE "0:"
    INDEX 01 01:35:50
  TRACK 70 AUDIO
    TITLE "23:cjc171_14635"
    INDEX 01 01:36:01
  TRACK 71 AUDIO
    TITLE "0:"
    INDEX 01 01:38:33
  TRACK 72 AUDIO
    TITLE "19:cjc171_14636"
    INDEX 01 01:39:26
  TRACK 73 AUDIO
    TITLE "0:"
    INDEX 01 01:40:30
  TRACK 74 AUDIO
    TITLE "20:cjc171_14637"
    INDEX 01 01:40:67
  TRACK 75 AUDIO
    TITLE "0:"
    INDEX 01 01:42:01
  TRACK 76 AUDIO
    TITLE "21:cjc171_14638"
    INDEX 01 01:43:03
  TRACK 77 AUDIO
    TITLE "0:"
    INDEX 01 01:45:35
  TRACK 78 AUDIO
    TITLE "22:cjc171_14639"
    INDEX 01 01:45:72
  TRACK 79 AUDIO
    TITLE "0:"
    INDEX 01 01:47:55
  TRACK 80 AUDIO
    TITLE "23:cjc171_14640"
    INDEX 01 01:48:10
  TRACK 81 AUDIO
    TITLE "0:"
    INDEX 01 01:49:66
  TRACK 82 AUDIO
    TITLE "19:cjc171_14641"
    INDEX 01 01:50:71
  TRACK 83 AUDIO
    TITLE "0:"
    INDEX 01 01:52:37
  TRACK 84 AUDIO
    TITLE "20:cjc171_14642"
    INDEX 01 01:52:74
  TRACK 85 AUDIO
    TITLE "0:"
    INDEX 01 01:54:22
  TRACK 86 AUDIO
    TITLE "21:cjc171_14643"
    INDEX 01 01:55:19
  TRACK 87 AUDIO
    TITLE "0:"
    INDEX 01 01:57:44
  TRACK 88 AUDIO
    TITLE "22:cjc171_14644"
    INDEX 01 01:58:08
  TRACK 89 AUDIO
    TITLE "0:"
    INDEX 01 02:00:32
  TRACK 90 AUDIO
    TITLE "23:cjc171_14645"
    INDEX 01 02:00:62
  TRACK 91 AUDIO
    TITLE "0:"
    INDEX 01 02:03:13
  TRACK 92 AUDIO
    TITLE "19:cjc171_14646"
    INDEX 01 02:04:16
  TRACK 93 AUDIO
    TITLE "0:"
    INDEX 01 02:05:39
  TRACK 94 AUDIO
    TITLE "20:cjc171_14647"
    INDEX 01 02:06:04
  TRACK 95 AUDIO
    TITLE "0:"
    INDEX 01 02:08:42
  TRACK 96 AUDIO
    TITLE "21:cjc171_14648"
    INDEX 01 02:09:41
  TRACK 97 AUDIO
    TITLE "0:"
    INDEX 01 02:11:32
  TRACK 98 AUDIO
    TITLE "22:cjc171_14649"
    INDEX 01 02:11:69
  TRACK 99 AUDIO
    TITLE "0:"
    INDEX 01 02:13:66
  TRACK 100 AUDIO
    TITLE "23:cjc171_14650"
    INDEX 01 02:14:25
  TRACK 101 AUDIO
    TITLE "0:"
    INDEX 01 02:16:24
  TRACK 102 AUDIO
    TITLE "19:cjc171_14651"
    INDEX 01 02:17:25
  TRACK 103 AUDIO
    TITLE "0:"
    INDEX 01 02:18:32
  TRACK 104 AUDIO
    TITLE "20:cjc171_14652"
    INDEX 01 02:18:64
  TRACK 105 AUDIO
    TITLE "0:"
    INDEX 01 02:22:22
  TRACK 106 AUDIO
    TITLE "21:cjc171_14653"
    INDEX 01 02:23:20
  TRACK 107 AUDIO
    TITLE "0:"
    INDEX 01 02:26:16
  TRACK 108 AUDIO
    TITLE "22:cjc171_14654"
    INDEX 01 02:26:47
  TRACK 109 AUDIO
    TITLE "0:"
    INDEX 01 02:29:56
  TRACK 110 AUDIO
    TITLE "23:cjc171_14655"
    INDEX 01 02:29:69
  TRACK 111 AUDIO
    TITLE "0:"
    INDEX 01 02:33:02
  TRACK 112 AUDIO
    TITLE "19:cjc171_14656"
    INDEX 01 02:33:69
  TRACK 113 AUDIO
    TITLE "0:"
    INDEX 01 02:35:17
  TRACK 114 AUDIO
    TITLE "20:cjc171_14657"
    INDEX 01 02:35:52
  TRACK 115 AUDIO
    TITLE "0:"
    INDEX 01 02:39:38
  TRACK 116 AUDIO
    TITLE "21:cjc171_14658"
    INDEX 01 02:40:38
  TRACK 117 AUDIO
    TITLE "0:"
    INDEX 01 02:42:54
  TRACK 118 AUDIO
    TITLE "22:cjc171_14659"
    INDEX 01 02:43:13
  TRACK 119 AUDIO
    TITLE "0:"
    INDEX 01 02:45:64
  TRACK 120 AUDIO
    TITLE "23:cjc171_14660"
    INDEX 01 02:46:15
  TRACK 121 AUDIO
    TITLE "0:"
    INDEX 01 02:48:57
  TRACK 122 AUDIO
    TITLE "19:cjc171_14661"
    INDEX 01 02:49:72
  TRACK 123 AUDIO
    TITLE "0:"
    INDEX 01 02:51:18
  TRACK 124 AUDIO
    TITLE "20:cjc171_14662"
    INDEX 01 02:51:57
  TRACK 125 AUDIO
    TITLE "0:"
    INDEX 01 02:54:16
  TRACK 126 AUDIO
    TITLE "21:cjc171_14663"
    INDEX 01 02:55:14
  TRACK 127 AUDIO
    TITLE "0:"
    INDEX 01 02:56:74
  TRACK 128 AUDIO
    TITLE "22:cjc171_14664"
    INDEX 01 02:57:40
  TRACK 129 AUDIO
    TITLE "0:"
    INDEX 01 02:59:37
  TRACK 130 AUDIO
    TITLE "23:cjc171_14665"
    INDEX 01 02:59:64
  TRACK 131 AUDIO
    TITLE "0:"
    INDEX 01 03:01:61
  TRACK 132 AUDIO
    TITLE "19:cjc171_14666"
    INDEX 01 03:02:65
  TRACK 133 AUDIO
    TITLE "0:"
    INDEX 01 03:04:01
  TRACK 134 AUDIO
    TITLE "20:cjc171_14667"
    INDEX 01 03:04:40
  TRACK 135 AUDIO
    TITLE "0:"
    INDEX 01 03:05:59
  TRACK 136 AUDIO
    TITLE "21:cjc171_14668"
    INDEX 01 03:06:57
  TRACK 137 AUDIO
    TITLE "0:"
    INDEX 01 03:09:39
  TRACK 138 AUDIO
    TITLE "22:cjc171_14669"
    INDEX 01 03:10:06
  TRACK 139 AUDIO
    TITLE "0:"
    INDEX 01 03:12:12
  TRACK 140 AUDIO
    TITLE "23:cjc171_14670"
    INDEX 01 03:12:42
  TRACK 141 AUDIO
    TITLE "0:"
    INDEX 01 03:14:50
  TRACK 142 AUDIO
    TITLE "19:cjc171_14671"
    INDEX 01 03:15:52
  TRACK 143 AUDIO
    TITLE "0:"
    INDEX 01 03:16:59
  TRACK 144 AUDIO
    TITLE "20:cjc171_14672"
    INDEX 01 03:17:19
  TRACK 145 AUDIO
    TITLE "0:"
    INDEX 01 03:20:74
  TRACK 146 AUDIO
    TITLE "21:cjc171_14673"
    INDEX 01 03:22:01
  TRACK 147 AUDIO
    TITLE "0:"
    INDEX 01 03:23:59
  TRACK 148 AUDIO
    TITLE "22:cjc171_14674"
    INDEX 01 03:24:17
  TRACK 149 AUDIO
    TITLE "0:"
    INDEX 01 03:26:16
  TRACK 150 AUDIO
    TITLE "23:cjc171_14675"
    INDEX 01 03:26:40
  TRACK 151 AUDIO
    TITLE "0:"
    INDEX 01 03:28:39
  TRACK 152 AUDIO
    TITLE "19:cjc171_14676"
    INDEX 01 03:29:38
  TRACK 153 AUDIO
    TITLE "0:"
    INDEX 01 03:31:04
  TRACK 154 AUDIO
    TITLE "20:cjc171_14677"
    INDEX 01 03:31:39
  TRACK 155 AUDIO
    TITLE "0:"
    INDEX 01 03:33:52
  TRACK 156 AUDIO
    TITLE "21:cjc171_14678"
    INDEX 01 03:34:49
  TRACK 157 AUDIO
    TITLE "0:"
    INDEX 01 03:36:72
  TRACK 158 AUDIO
    TITLE "22:cjc171_14679"
    INDEX 01 03:37:32
  TRACK 159 AUDIO
    TITLE "0:"
    INDEX 01 03:40:16
  TRACK 160 AUDIO
    TITLE "23:cjc171_14680"
    INDEX 01 03:40:38
  TRACK 161 AUDIO
    TITLE "0:"
    INDEX 01 03:43:21
  TRACK 162 AUDIO
    TITLE "19:cjc171_14681"
    INDEX 01 03:44:24
  TRACK 163 AUDIO
    TITLE "0:"
    INDEX 01 03:45:25
  TRACK 164 AUDIO
    TITLE "20:cjc171_14682"
    INDEX 01 03:45:65
  TRACK 165 AUDIO
    TITLE "0:"
    INDEX 01 03:47:07
  TRACK 166 AUDIO
    TITLE "21:cjc171_14683"
    INDEX 01 03:48:04
  TRACK 167 AUDIO
    TITLE "0:"
    INDEX 01 03:49:47
  TRACK 168 AUDIO
    TITLE "22:cjc171_14684"
    INDEX 01 03:50:13
  TRACK 169 AUDIO
    TITLE "0:"
    INDEX 01 03:51:59
  TRACK 170 AUDIO
    TITLE "23:cjc171_14685"
    INDEX 01 03:52:12
  TRACK 171 AUDIO
    TITLE "0:"
    INDEX 01 03:53:60
  TRACK 172 AUDIO
    TITLE "19:cjc171_14686"
    INDEX 01 03:54:62
  TRACK 173 AUDIO
    TITLE "0:"
    INDEX 01 03:56:17
  TRACK 174 AUDIO
    TITLE "20:cjc171_14687"
    INDEX 01 03:56:57
  TRACK 175 AUDIO
    TITLE "0:"
    INDEX 01 03:58:20
  TRACK 176 AUDIO
    TITLE "21:cjc171_14688"
    INDEX 01 03:59:22
  TRACK 177 AUDIO
    TITLE "0:"
    INDEX 01 04:01:26
  TRACK 178 AUDIO
    TITLE "22:cjc171_14689"
    INDEX 01 04:01:68
  TRACK 179 AUDIO
    TITLE "0:"
    INDEX 01 04:03:63
  TRACK 180 AUDIO
    TITLE "23:cjc171_14690"
    INDEX 01 04:04:17
  TRACK 181 AUDIO
    TITLE "0:"
    INDEX 01 04:06:14
  TRACK 182 AUDIO
    TITLE "19:cjc171_14691"
    INDEX 01 04:07:11
  TRACK 183 AUDIO
    TITLE "0:"
    INDEX 01 04:08:30
  TRACK 184 AUDIO
    TITLE "20:cjc171_14692"
    INDEX 01 04:08:68
  TRACK 185 AUDIO
    TITLE "0:"
    INDEX 01 04:10:08
  TRACK 186 AUDIO
    TITLE "21:cjc171_14693"
    INDEX 01 04:11:07
  TRACK 187 AUDIO
    TITLE "0:"
    INDEX 01 04:12:60
  TRACK 188 AUDIO
    TITLE "22:cjc171_14694"
    INDEX 01 04:13:20
  TRACK 189 AUDIO
    TITLE "0:"
    INDEX 01 04:14:70
  TRACK 190 AUDIO
    TITLE "23:cjc171_14695"
    INDEX 01 04:15:17
  TRACK 191 AUDIO
    TITLE "0:"
    INDEX 01 04:16:71
  TRACK 192 AUDIO
    TITLE "19:cjc171_14696"
    INDEX 01 04:17:67
  TRACK 193 AUDIO
    TITLE "0:"
    INDEX 01 04:19:07
  TRACK 194 AUDIO
    TITLE "20:cjc171_14697"
    INDEX 01 04:19:42
  TRACK 195 AUDIO
    TITLE "0:"
    INDEX 01 04:22:74
  TRACK 196 AUDIO
    TITLE "21:cjc171_14698"
    INDEX 01 04:23:75
  TRACK 197 AUDIO
    TITLE "0:"
    INDEX 01 04:26:07
  TRACK 198 AUDIO
    TITLE "22:cjc171_14699"
    INDEX 01 04:26:40
  TRACK 199 AUDIO
    TITLE "0:"
    INDEX 01 04:28:39
  TRACK 200 AUDIO
    TITLE "23:cjc171_14700"
    INDEX 01 04:28:62
  TRACK 201 AUDIO
    TITLE "0:"
    INDEX 01 04:30:61
